<?xml version="1.0" encoding="iso-8859-1"?>
<!-- Generator: Adobe Illustrator 19.0.0, SVG Export Plug-In . SVG Version: 6.00 Build 0)  -->
<svg version="1.1" id="Capa_1" xmlns="http://www.w3.org/2000/svg" xmlns:xlink="http://www.w3.org/1999/xlink" x="0px" y="0px"
	 viewBox="0 0 204.8 204.8" style="enable-background:new 0 0 204.8 204.8;" xml:space="preserve">
<g>
	<g>
		<path style="fill:#fff;" d="M174.807,30.034c-39.924-39.921-104.887-39.921-144.814,0C10.651,49.372,0,75.085,0,102.434
			c0,27.349,10.651,53.062,29.993,72.4c19.965,19.963,46.182,29.943,72.407,29.942c26.218-0.003,52.446-9.982,72.407-29.94
			c19.342-19.34,29.993-45.053,29.993-72.402C204.8,75.085,194.149,49.372,174.807,30.034z M169.979,170.008
			c-37.263,37.26-97.896,37.26-135.159,0c-18.051-18.05-27.993-42.047-27.993-67.574c0-25.527,9.941-49.524,27.993-67.574
			C53.451,16.23,77.926,6.915,102.4,6.915s48.949,9.315,67.581,27.947c18.051,18.048,27.993,42.045,27.993,67.572
			C197.973,127.961,188.032,151.958,169.979,170.008z"/>
	</g>
</g>
<g>
	<g>
		<path style="fill:#fff;" d="M182.629,156.544c-0.881-0.012-88.351-1.993-116.209-70.719c-0.708-1.746-2.695-2.587-4.444-1.881
			c-1.749,0.708-2.591,2.698-1.882,4.446c12.247,30.217,37.344,52.768,72.574,65.219c26.429,9.339,48.922,9.748,49.867,9.762
			c0.015,0,0.031,0,0.048,0c1.864,0,3.388-1.497,3.413-3.367C186.02,158.119,184.513,156.569,182.629,156.544z"/>
	</g>
</g>
<g>
	<g>
		<path style="fill:#fff;" d="M137.173,191.213c-0.852-0.113-85.502-12.285-109.428-89.783c-0.556-1.801-2.468-2.807-4.268-2.255
			c-1.801,0.556-2.811,2.468-2.255,4.268c13.201,42.761,43.797,66.197,67.139,78.326c25.192,13.09,47,16.09,47.915,16.212
			c0.152,0.02,0.304,0.029,0.454,0.029c1.686,0,3.151-1.248,3.378-2.964C140.355,193.177,139.042,191.462,137.173,191.213z"/>
	</g>
</g>
<g>
	<g>
		<path style="fill:#fff;" d="M99.316,3.355c-0.046-1.886-1.652-3.379-3.495-3.33c-1.884,0.046-3.374,1.611-3.328,3.495
			c1.181,48.229-26.206,74.086-32.084,79.068c-15.749-2.581-30.449,4.639-42.593,20.958c-9.165,12.317-13.631,25.387-13.817,25.936
			c-0.601,1.787,0.358,3.722,2.145,4.325c0.362,0.121,0.729,0.179,1.091,0.179c1.425,0,2.755-0.898,3.234-2.321
			c0.043-0.125,4.297-12.585,12.824-24.044C34.309,92.82,46.884,86.751,60.648,89.574c0.952,0.195,1.934-0.022,2.71-0.596
			C64.884,87.856,100.726,60.795,99.316,3.355z"/>
	</g>
</g>
<g>
	<g>
		<path style="fill:#fff;" d="M91.371,38.134C41.119,23.866,7.96,65.223,7.632,65.643c-1.164,1.483-0.905,3.628,0.579,4.792
			c0.625,0.49,1.365,0.727,2.104,0.727c1.012,0,2.014-0.447,2.686-1.307c0.3-0.382,30.623-38.188,76.503-25.156
			c1.819,0.517,3.702-0.538,4.217-2.35C94.237,40.537,93.184,38.649,91.371,38.134z"/>
	</g>
</g>
<g>
	<g>
		<path style="fill:#fff;" d="M142.857,9.021c-1.864-0.072-3.466,1.405-3.534,3.289c-2.574,71.431-51.76,108.095-52.256,108.457
			c-1.521,1.109-1.857,3.243-0.749,4.767c0.667,0.918,1.708,1.406,2.763,1.406c0.695,0,1.396-0.212,1.998-0.652
			c2.137-1.551,52.369-38.861,55.067-113.734C146.212,10.672,144.741,9.089,142.857,9.021z"/>
	</g>
</g>
<g>
	<g>
		<path style="fill:#fff;" d="M188.989,51.855c-1.867-0.092-3.492,1.335-3.598,3.217c-3.222,57.632-48.596,93.112-49.055,93.464
			c-1.495,1.149-1.778,3.29-0.631,4.785c0.674,0.877,1.686,1.338,2.712,1.338c0.722,0,1.452-0.229,2.07-0.703
			c1.973-1.509,48.319-37.661,51.721-98.502C192.312,53.572,190.874,51.961,188.989,51.855z"/>
	</g>
</g>
<g>
</g>
<g>
</g>
<g>
</g>
<g>
</g>
<g>
</g>
<g>
</g>
<g>
</g>
<g>
</g>
<g>
</g>
<g>
</g>
<g>
</g>
<g>
</g>
<g>
</g>
<g>
</g>
<g>
</g>
</svg>
